<?xml version="1.0" encoding="utf-8"?>
<svg version="1.0" viewBox="747.831 2201.615 3510.32 596.769" xmlns="http://www.w3.org/2000/svg">
  <path d="M1070 2215c-11.3 1.1-34.3 4.8-37.4 6-3 1.2-1 1.2 14.4-.5 26.9-2.9 60.3-1.5 85.1 3.5 108 22 192.9 108.1 212.8 215.9 3.4 18 4.4 29.8 4.4 50.1 0 44.6-9 82.7-29 122.2-12.8 25.4-27.3 45.7-47.8 66.7-42.8 44-95 70.6-156.8 79.9-16.6 2.5-59.8 2.4-76.2-.2-28.7-4.4-54.1-12.4-80-25.1-28-13.6-51.5-30.4-73-52-25.7-25.7-43.3-52.1-60-89.8-2.6-5.9-5-10.5-5.2-10.3-.8.8 5.7 19.5 11.4 32.6 7.2 16.7 12.8 26.7 23.9 43.5 12.2 18.6 20.2 28.4 35.9 44.1 45 45.2 101.2 73.1 165.5 82.1 15.5 2.1 56.6 2.4 71 .5 37.8-5.2 75.9-17.6 105.4-34.3 24.9-14.1 43.2-28.2 64.1-49.3 42.2-42.5 68.9-94.6 78.9-153.6 5.6-32.8 4.6-72.7-2.5-107.5-8.3-39.8-27.7-81.2-54.9-116.5-10.2-13.2-37.2-39.8-51-50.1-40.8-30.7-83-48.4-133.5-56-15-2.3-50.4-3.3-65.5-1.9z"/>
  <path d="M1055.3 2243c-29.8 2.9-58.4 11-85.8 24.4-43 21-77.3 52.2-102.9 93.5-4.5 7.4-7.6 11.3-9 11.6-1.1.2-13.8 2.1-28.1 4-14.3 2-30.7 4.3-36.4 5.2l-10.4 1.6-2.6 5.6c-2.2 4.6-2.6 7-2.5 13.6 0 9.5 2.4 15.4 9 22.2 3.3 3.5 4.6 4.3 6.5 3.8 1.4-.3 12.5-2.3 24.7-4.4 19.3-3.3 22.2-3.6 21.8-2.2-1.9 5.9-5.8 24.4-7.3 34.1-2.4 16.2-2.4 52.1 0 68 6.3 40.2 18.8 72.9 40 104.5 12.5 18.6 29.7 37.7 47.7 52.7 37.1 31 86.1 51.3 135 55.8 17.9 1.7 46.6.8 63-2 52-8.7 100-33.5 136.3-70.5 12.5-12.7 24.1-27.1 23.1-28.7-.4-.7-6.2-7.5-12.8-15.1-6.7-7.6-12.2-14.6-12.4-15.6-.2-1 .4-2.3 1.2-3 1.4-1.1.3-2.7-7.5-11.7-8-9-9.4-10.2-11-9.3-1.1.5-2.8.8-3.7.5-1-.4-21.4-23.3-45.3-51.1-23.8-27.7-43.8-50.4-44.3-50.4-.5-.1-20.5 11.4-44.3 25.6l-43.4 25.6-7.2-6.9c-22-21.1-29-28.2-30.3-30.6-1.2-2.2-5.4-45.7-5.4-56 0-2.3-.6-2.9-3.9-3.8-5.5-1.5-8.9-4.5-9.7-8.7-1.7-8.8 5-35.8 10.5-42.3 3.2-3.9 4.7-4 19.4-1.5 8.3 1.4 11.5 1.6 14.2.8 3.4-1.1 3.5-1.1 3.5 1.7 0 1.6-.5 4.1-1.1 5.7-.7 1.9 3.1-1.3 12.4-10.5 11-10.9 13.9-13.2 16.3-13.2 3.7 0 64.1 20.1 67.8 22.6 3.3 2.1 33.5 40.7 35 44.6.8 2.2.6 3.8-.8 7.5-1 2.7-1.9 5.7-2 6.9-.1 1.4 14.5 18.7 44.9 53.3 28.4 32.4 45.1 52.2 45.3 53.8.2 1.3-.2 3.1-.8 3.9-1 1.1.3 3.1 7.1 10.6 4.6 5.1 8.5 9.5 8.6 9.7.2.2 1.3 0 2.5-.6 1.3-.5 2.8-.8 3.4-.6.7.2 4.9 4.7 9.4 9.8 4.5 5.2 8.5 9.5 8.9 9.5.4 0 1.2-1.2 1.8-2.8 10-24.1 14.2-37 17.7-55.2 3.5-17.9 4.6-29.6 4.6-49.2 0-39.1-7.9-73.6-24.9-108.3-12.4-25.4-27.8-47-47.2-66.4-39.2-39.3-87.5-63.1-143.9-71.1-10.4-1.5-43.6-2.1-54.7-1zm-112.1 137c7.5 1.1 19.2 3.1 25.9 4.5 14.6 3 13.5 3 14.2.5.3-1.2 1.4-2 2.7-2 2.1 0 14.1 2.8 14.8 3.5.1.1-.6 2.4-1.6 5.1-2.1 5.3-4.8 17-5.8 24.7-.4 3.9-.9 4.7-2.2 4.3-1.8-.5-3-.8-9.9-2.6-3.1-.8-4.3-1.6-4.3-2.9 0-2.1-4.4-3.5-24.6-7.8-12.2-2.6-14.3-2.8-37.4-2.7-27.6.1-41.3 1.6-92.7 10.1-27.1 4.5-28.3 4.6-30.2 2.9-3.1-2.8-6.1-10.2-6.1-14.9 0-3.4 1.4-9.9 2.4-11.4.2-.3 74.4-10.9 89.1-12.7 16.5-2.1 47.3-1.4 65.7 1.4zm152.2 134.7c-.6 2.2-.4 2.5 1 2 11.2-4.3 24.9-4.7 32.3-.9 9.2 4.8 15.8 13 19.8 24.9 3.8 11.6 14.7 54.3 14.2 55.7-.5 1.4-8.3 3.3-9.3 2.3-.3-.2-3.4-9.6-6.9-20.8-15.8-50.4-17.7-52.7-39.6-46.7l-7.9 2.1v20.1l4.2 5c17.8 21.5 37.3 43.5 40 45.1 17 10.3 28.3 3.7 50-29 5.5-8.3 10.3-15.1 10.6-15.2.4-.1 5 4.9 10.3 11.1 7.9 9.1 9.6 11.7 9.2 13.7-.4 1.7-9.7 9.6-34.5 28.9-18.7 14.6-34.8 26.8-35.9 27.2-1 .4-2.6.5-3.4.2-2.6-1-91-101.4-91.3-103.7-.2-1.9 2.6-3.9 18.5-13.4 10.3-6.2 18.9-11.2 19.1-11.2.1-.1-.1 1.1-.4 2.6zM1921 2357.6c-22.3 2.8-41.5 9.2-59.5 19.9-35.9 21.3-59.7 56.8-66 98.5-1.9 12.2-1.9 35.8 0 48 6.3 41.7 30.1 77.2 66 98.5 15 8.9 30 14.5 48 18.1 12.6 2.6 42.4 2.6 55 0 51.2-10.2 90.7-43.7 107.4-90.9 6-17.1 7.5-26.9 7.5-49.7 0-22.8-1.5-32.6-7.5-49.7-16.6-47.1-56.4-80.9-106.9-90.8-8.3-1.6-36.4-2.8-44-1.9zm33.5 54.5c29.7 5.1 56.2 30.8 64.6 62.4 2.7 10.2 3.6 29.3 1.9 40.6-5 34.5-28.2 61.7-60.7 71.1-6.6 1.9-10.2 2.3-23.3 2.3-18.3 0-25.7-1.7-40.4-9.2-7.5-3.9-10.9-6.5-19.2-14.8-9.4-9.2-10.6-10.9-15.7-21.5-8.2-16.9-9.2-21.9-9.1-43.5 0-15.3.4-19.2 2.2-26 9.3-33.5 37.5-58.3 71.2-62.4 8.1-1 18.9-.6 28.5 1zM3433 2453c0 85.3.1 91.5 1.9 100.7 9.8 50.5 48.7 83.4 104.3 88.3 58.3 5.1 108.7-25.3 124.3-75 5.4-17.2 5.5-20 5.5-116.3V2362h-55.9l-.4 88.7c-.3 98.1-.1 94.2-6.8 107.9-6.2 12.5-21.1 23.7-36.9 27.6-7.2 1.7-29.8 1.7-37-.1-15.7-3.8-29.8-14.5-35.9-27.3-6.7-14.2-6.5-10-6.8-108.1l-.4-88.7H3433v91zM1521 2499.9V2637h57v-94l3.8 1.6c6.2 2.8 17.4 6.2 26.3 8.1 6.4 1.4 12.7 1.8 26.9 1.7 16.7 0 19.4-.3 28.2-2.6 24.6-6.7 46.4-21.8 59.7-41.6 18.8-28 19.8-67.9 2.3-97.6-11.3-19.1-32.9-36.2-55.2-43.6-16.5-5.4-14.9-5.3-84.2-5.7l-64.8-.4v137zm123.5-81.5c14.3 4.2 26.8 13.3 31.3 22.8 8 17.1 3.8 37.5-10.4 50.7-11.8 11.1-23.3 14.6-44.9 13.7-13.8-.5-25.2-2.5-36.5-6.3l-5.5-1.8-.3-40.8-.2-40.9 30.2.5c24.8.3 31.4.7 36.3 2.1zM2124 2363.7c.1.5 20.4 62 45.3 136.8l45.3 136h39.6l30.1-87.3c16.6-47.9 30.4-87.2 30.7-87.2.3 0 14.1 39.3 30.6 87.3l30.2 87.2h39.4l45.9-136c25.3-74.7 45.9-136.3 45.9-136.7 0-.4-14.4-.8-31.9-.8h-31.9l-1.1 3.2c-.6 1.8-12.1 40.4-25.6 85.7-13.5 45.3-24.7 82.6-24.9 82.8-.2.3-10.2-29.2-22.1-65.4-11.9-36.2-24.6-74.9-28.3-86.1l-6.7-20.2h-38l-28.4 85.2c-15.6 46.9-28.6 85.6-29 86-.3.4-11.9-37.9-25.7-85l-25.1-85.7-32.2-.3c-17.6-.1-32.1.1-32.1.5zM2574 2500v137h193v-50h-137l.2-33.3.3-33.2 60.3-.3 60.2-.2v-46h-121v-62h137v-49h-193v137zM2862 2499.9V2637h57l.2-55.6.3-55.6 47.3 55.6 47.3 55.6h74l-2.3-2.9c-1.3-1.6-23-25-48.3-52-25.3-27.1-46.1-49.6-46.3-50-.1-.5 2.6-1.1 6-1.5 17.2-1.7 39.6-10.8 52.1-21.1 12.7-10.5 21.9-25.1 25.3-40.2 2-9.3 1.5-32.5-1-41.8-8.1-30-33.8-52.1-71.3-61.2l-10.8-2.7-64.7-.3-64.8-.4v137zm123.5-81.9c2.8.7 8.6 2.9 13 4.9 13.9 6.5 19.7 15.5 19.6 30.8 0 15.7-6.4 25.3-21.5 32.4-8.9 4.2-18.2 5.9-32.3 5.9-13.5 0-23.5-1.1-36.5-4.1l-8.8-2.1v-70l30.8.5c19 .3 32.6.9 35.7 1.7zM3156 2500v137h57v-103h107v-51h-107v-69h130v-51h-187v137zM3768 2500v137h194v-50h-137v-67h121l-.2-22.8-.3-22.7-60.2-.3-60.3-.2v-62h137v-49h-194v137zM4056 2500v137h194v-51h-137v-223h-57v137zM779.1 2447.1c-.1 3.2-5.7 12.4-15.1 24.9-11.8 15.8-13.5 19.4-13.4 28.6 0 9.4 3.7 17.2 10.8 22.5 19.8 15 46.8 1.5 46.7-23.2 0-9.1-2.3-13.9-12.7-27.5-9.3-12-11.9-16-14.4-22.2-1-2.6-1.9-4-1.9-3.1z"/>
</svg>